<?xml version="1.0" encoding="utf-8" standalone="no"?>
<!DOCTYPE svg PUBLIC "-//W3C//DTD SVG 1.1//EN"
  "http://www.w3.org/Graphics/SVG/1.1/DTD/svg11.dtd">
<!-- Created with matplotlib (http://matplotlib.org/) -->
<svg height="345.6pt" version="1.1" viewBox="0 0 460.8 345.6" width="460.8pt" xmlns="http://www.w3.org/2000/svg" xmlns:xlink="http://www.w3.org/1999/xlink">
 <defs>
  <style type="text/css">
*{stroke-linecap:butt;stroke-linejoin:round;}
  </style>
 </defs>
 <g id="figure_1">
  <g id="patch_1">
   <path d="M 0 345.6 
L 460.8 345.6 
L 460.8 0 
L 0 0 
z
" style="fill:#ffffff;"/>
  </g>
  <g id="axes_1">
   <g id="patch_2">
    <path d="M 38.27 303.64 
L 447.48 303.64 
L 447.48 14.76 
L 38.27 14.76 
z
" style="fill:#ffffff;"/>
   </g>
   <g id="matplotlib.axis_1">
    <g id="xtick_1">
     <g id="line2d_1">
      <defs>
       <path d="M 0 0 
L 0 3.5 
" id="m68e915f95e" style="stroke:#000000;stroke-width:0.8;"/>
      </defs>
      <g>
       <use style="stroke:#000000;stroke-width:0.8;" x="56.684357" xlink:href="#m68e915f95e" y="303.64"/>
      </g>
     </g>
     <g id="text_1">
      <!-- 0 -->
      <defs>
       <path d="M 31.78125 66.40625 
Q 24.171875 66.40625 20.328125 58.90625 
Q 16.5 51.421875 16.5 36.375 
Q 16.5 21.390625 20.328125 13.890625 
Q 24.171875 6.390625 31.78125 6.390625 
Q 39.453125 6.390625 43.28125 13.890625 
Q 47.125 21.390625 47.125 36.375 
Q 47.125 51.421875 43.28125 58.90625 
Q 39.453125 66.40625 31.78125 66.40625 
z
M 31.78125 74.21875 
Q 44.046875 74.21875 50.515625 64.515625 
Q 56.984375 54.828125 56.984375 36.375 
Q 56.984375 17.96875 50.515625 8.265625 
Q 44.046875 -1.421875 31.78125 -1.421875 
Q 19.53125 -1.421875 13.0625 8.265625 
Q 6.59375 17.96875 6.59375 36.375 
Q 6.59375 54.828125 13.0625 64.515625 
Q 19.53125 74.21875 31.78125 74.21875 
z
" id="DejaVuSans-30"/>
      </defs>
      <g transform="translate(53.503107 318.238437)scale(0.1 -0.1)">
       <use xlink:href="#DejaVuSans-30"/>
      </g>
     </g>
    </g>
    <g id="xtick_2">
     <g id="line2d_2">
      <g>
       <use style="stroke:#000000;stroke-width:0.8;" x="103.208756" xlink:href="#m68e915f95e" y="303.64"/>
      </g>
     </g>
     <g id="text_2">
      <!-- 250 -->
      <defs>
       <path d="M 19.1875 8.296875 
L 53.609375 8.296875 
L 53.609375 0 
L 7.328125 0 
L 7.328125 8.296875 
Q 12.9375 14.109375 22.625 23.890625 
Q 32.328125 33.6875 34.8125 36.53125 
Q 39.546875 41.84375 41.421875 45.53125 
Q 43.3125 49.21875 43.3125 52.78125 
Q 43.3125 58.59375 39.234375 62.25 
Q 35.15625 65.921875 28.609375 65.921875 
Q 23.96875 65.921875 18.8125 64.3125 
Q 13.671875 62.703125 7.8125 59.421875 
L 7.8125 69.390625 
Q 13.765625 71.78125 18.9375 73 
Q 24.125 74.21875 28.421875 74.21875 
Q 39.75 74.21875 46.484375 68.546875 
Q 53.21875 62.890625 53.21875 53.421875 
Q 53.21875 48.921875 51.53125 44.890625 
Q 49.859375 40.875 45.40625 35.40625 
Q 44.1875 33.984375 37.640625 27.21875 
Q 31.109375 20.453125 19.1875 8.296875 
z
" id="DejaVuSans-32"/>
       <path d="M 10.796875 72.90625 
L 49.515625 72.90625 
L 49.515625 64.59375 
L 19.828125 64.59375 
L 19.828125 46.734375 
Q 21.96875 47.46875 24.109375 47.828125 
Q 26.265625 48.1875 28.421875 48.1875 
Q 40.625 48.1875 47.75 41.5 
Q 54.890625 34.8125 54.890625 23.390625 
Q 54.890625 11.625 47.5625 5.09375 
Q 40.234375 -1.421875 26.90625 -1.421875 
Q 22.3125 -1.421875 17.546875 -0.640625 
Q 12.796875 0.140625 7.71875 1.703125 
L 7.71875 11.625 
Q 12.109375 9.234375 16.796875 8.0625 
Q 21.484375 6.890625 26.703125 6.890625 
Q 35.15625 6.890625 40.078125 11.328125 
Q 45.015625 15.765625 45.015625 23.390625 
Q 45.015625 31 40.078125 35.4375 
Q 35.15625 39.890625 26.703125 39.890625 
Q 22.75 39.890625 18.8125 39.015625 
Q 14.890625 38.140625 10.796875 36.28125 
z
" id="DejaVuSans-35"/>
      </defs>
      <g transform="translate(93.665006 318.238437)scale(0.1 -0.1)">
       <use xlink:href="#DejaVuSans-32"/>
       <use x="63.623047" xlink:href="#DejaVuSans-35"/>
       <use x="127.246094" xlink:href="#DejaVuSans-30"/>
      </g>
     </g>
    </g>
    <g id="xtick_3">
     <g id="line2d_3">
      <g>
       <use style="stroke:#000000;stroke-width:0.8;" x="149.733154" xlink:href="#m68e915f95e" y="303.64"/>
      </g>
     </g>
     <g id="text_3">
      <!-- 500 -->
      <g transform="translate(140.189404 318.238437)scale(0.1 -0.1)">
       <use xlink:href="#DejaVuSans-35"/>
       <use x="63.623047" xlink:href="#DejaVuSans-30"/>
       <use x="127.246094" xlink:href="#DejaVuSans-30"/>
      </g>
     </g>
    </g>
    <g id="xtick_4">
     <g id="line2d_4">
      <g>
       <use style="stroke:#000000;stroke-width:0.8;" x="196.257553" xlink:href="#m68e915f95e" y="303.64"/>
      </g>
     </g>
     <g id="text_4">
      <!-- 750 -->
      <defs>
       <path d="M 8.203125 72.90625 
L 55.078125 72.90625 
L 55.078125 68.703125 
L 28.609375 0 
L 18.3125 0 
L 43.21875 64.59375 
L 8.203125 64.59375 
z
" id="DejaVuSans-37"/>
      </defs>
      <g transform="translate(186.713803 318.238437)scale(0.1 -0.1)">
       <use xlink:href="#DejaVuSans-37"/>
       <use x="63.623047" xlink:href="#DejaVuSans-35"/>
       <use x="127.246094" xlink:href="#DejaVuSans-30"/>
      </g>
     </g>
    </g>
    <g id="xtick_5">
     <g id="line2d_5">
      <g>
       <use style="stroke:#000000;stroke-width:0.8;" x="242.781951" xlink:href="#m68e915f95e" y="303.64"/>
      </g>
     </g>
     <g id="text_5">
      <!-- 1000 -->
      <defs>
       <path d="M 12.40625 8.296875 
L 28.515625 8.296875 
L 28.515625 63.921875 
L 10.984375 60.40625 
L 10.984375 69.390625 
L 28.421875 72.90625 
L 38.28125 72.90625 
L 38.28125 8.296875 
L 54.390625 8.296875 
L 54.390625 0 
L 12.40625 0 
z
" id="DejaVuSans-31"/>
      </defs>
      <g transform="translate(230.056951 318.238437)scale(0.1 -0.1)">
       <use xlink:href="#DejaVuSans-31"/>
       <use x="63.623047" xlink:href="#DejaVuSans-30"/>
       <use x="127.246094" xlink:href="#DejaVuSans-30"/>
       <use x="190.869141" xlink:href="#DejaVuSans-30"/>
      </g>
     </g>
    </g>
    <g id="xtick_6">
     <g id="line2d_6">
      <g>
       <use style="stroke:#000000;stroke-width:0.8;" x="289.30635" xlink:href="#m68e915f95e" y="303.64"/>
      </g>
     </g>
     <g id="text_6">
      <!-- 1250 -->
      <g transform="translate(276.58135 318.238437)scale(0.1 -0.1)">
       <use xlink:href="#DejaVuSans-31"/>
       <use x="63.623047" xlink:href="#DejaVuSans-32"/>
       <use x="127.246094" xlink:href="#DejaVuSans-35"/>
       <use x="190.869141" xlink:href="#DejaVuSans-30"/>
      </g>
     </g>
    </g>
    <g id="xtick_7">
     <g id="line2d_7">
      <g>
       <use style="stroke:#000000;stroke-width:0.8;" x="335.830748" xlink:href="#m68e915f95e" y="303.64"/>
      </g>
     </g>
     <g id="text_7">
      <!-- 1500 -->
      <g transform="translate(323.105748 318.238437)scale(0.1 -0.1)">
       <use xlink:href="#DejaVuSans-31"/>
       <use x="63.623047" xlink:href="#DejaVuSans-35"/>
       <use x="127.246094" xlink:href="#DejaVuSans-30"/>
       <use x="190.869141" xlink:href="#DejaVuSans-30"/>
      </g>
     </g>
    </g>
    <g id="xtick_8">
     <g id="line2d_8">
      <g>
       <use style="stroke:#000000;stroke-width:0.8;" x="382.355147" xlink:href="#m68e915f95e" y="303.64"/>
      </g>
     </g>
     <g id="text_8">
      <!-- 1750 -->
      <g transform="translate(369.630147 318.238437)scale(0.1 -0.1)">
       <use xlink:href="#DejaVuSans-31"/>
       <use x="63.623047" xlink:href="#DejaVuSans-37"/>
       <use x="127.246094" xlink:href="#DejaVuSans-35"/>
       <use x="190.869141" xlink:href="#DejaVuSans-30"/>
      </g>
     </g>
    </g>
    <g id="xtick_9">
     <g id="line2d_9">
      <g>
       <use style="stroke:#000000;stroke-width:0.8;" x="428.879545" xlink:href="#m68e915f95e" y="303.64"/>
      </g>
     </g>
     <g id="text_9">
      <!-- 2000 -->
      <g transform="translate(416.154545 318.238437)scale(0.1 -0.1)">
       <use xlink:href="#DejaVuSans-32"/>
       <use x="63.623047" xlink:href="#DejaVuSans-30"/>
       <use x="127.246094" xlink:href="#DejaVuSans-30"/>
       <use x="190.869141" xlink:href="#DejaVuSans-30"/>
      </g>
     </g>
    </g>
    <g id="text_10">
     <!-- Iteration -->
     <defs>
      <path d="M 9.8125 72.90625 
L 19.671875 72.90625 
L 19.671875 0 
L 9.8125 0 
z
" id="DejaVuSans-49"/>
      <path d="M 18.3125 70.21875 
L 18.3125 54.6875 
L 36.8125 54.6875 
L 36.8125 47.703125 
L 18.3125 47.703125 
L 18.3125 18.015625 
Q 18.3125 11.328125 20.140625 9.421875 
Q 21.96875 7.515625 27.59375 7.515625 
L 36.8125 7.515625 
L 36.8125 0 
L 27.59375 0 
Q 17.1875 0 13.234375 3.875 
Q 9.28125 7.765625 9.28125 18.015625 
L 9.28125 47.703125 
L 2.6875 47.703125 
L 2.6875 54.6875 
L 9.28125 54.6875 
L 9.28125 70.21875 
z
" id="DejaVuSans-74"/>
      <path d="M 56.203125 29.59375 
L 56.203125 25.203125 
L 14.890625 25.203125 
Q 15.484375 15.921875 20.484375 11.0625 
Q 25.484375 6.203125 34.421875 6.203125 
Q 39.59375 6.203125 44.453125 7.46875 
Q 49.3125 8.734375 54.109375 11.28125 
L 54.109375 2.78125 
Q 49.265625 0.734375 44.1875 -0.34375 
Q 39.109375 -1.421875 33.890625 -1.421875 
Q 20.796875 -1.421875 13.15625 6.1875 
Q 5.515625 13.8125 5.515625 26.8125 
Q 5.515625 40.234375 12.765625 48.109375 
Q 20.015625 56 32.328125 56 
Q 43.359375 56 49.78125 48.890625 
Q 56.203125 41.796875 56.203125 29.59375 
z
M 47.21875 32.234375 
Q 47.125 39.59375 43.09375 43.984375 
Q 39.0625 48.390625 32.421875 48.390625 
Q 24.90625 48.390625 20.390625 44.140625 
Q 15.875 39.890625 15.1875 32.171875 
z
" id="DejaVuSans-65"/>
      <path d="M 41.109375 46.296875 
Q 39.59375 47.171875 37.8125 47.578125 
Q 36.03125 48 33.890625 48 
Q 26.265625 48 22.1875 43.046875 
Q 18.109375 38.09375 18.109375 28.8125 
L 18.109375 0 
L 9.078125 0 
L 9.078125 54.6875 
L 18.109375 54.6875 
L 18.109375 46.1875 
Q 20.953125 51.171875 25.484375 53.578125 
Q 30.03125 56 36.53125 56 
Q 37.453125 56 38.578125 55.875 
Q 39.703125 55.765625 41.0625 55.515625 
z
" id="DejaVuSans-72"/>
      <path d="M 34.28125 27.484375 
Q 23.390625 27.484375 19.1875 25 
Q 14.984375 22.515625 14.984375 16.5 
Q 14.984375 11.71875 18.140625 8.90625 
Q 21.296875 6.109375 26.703125 6.109375 
Q 34.1875 6.109375 38.703125 11.40625 
Q 43.21875 16.703125 43.21875 25.484375 
L 43.21875 27.484375 
z
M 52.203125 31.203125 
L 52.203125 0 
L 43.21875 0 
L 43.21875 8.296875 
Q 40.140625 3.328125 35.546875 0.953125 
Q 30.953125 -1.421875 24.3125 -1.421875 
Q 15.921875 -1.421875 10.953125 3.296875 
Q 6 8.015625 6 15.921875 
Q 6 25.140625 12.171875 29.828125 
Q 18.359375 34.515625 30.609375 34.515625 
L 43.21875 34.515625 
L 43.21875 35.40625 
Q 43.21875 41.609375 39.140625 45 
Q 35.0625 48.390625 27.6875 48.390625 
Q 23 48.390625 18.546875 47.265625 
Q 14.109375 46.140625 10.015625 43.890625 
L 10.015625 52.203125 
Q 14.9375 54.109375 19.578125 55.046875 
Q 24.21875 56 28.609375 56 
Q 40.484375 56 46.34375 49.84375 
Q 52.203125 43.703125 52.203125 31.203125 
z
" id="DejaVuSans-61"/>
      <path d="M 9.421875 54.6875 
L 18.40625 54.6875 
L 18.40625 0 
L 9.421875 0 
z
M 9.421875 75.984375 
L 18.40625 75.984375 
L 18.40625 64.59375 
L 9.421875 64.59375 
z
" id="DejaVuSans-69"/>
      <path d="M 30.609375 48.390625 
Q 23.390625 48.390625 19.1875 42.75 
Q 14.984375 37.109375 14.984375 27.296875 
Q 14.984375 17.484375 19.15625 11.84375 
Q 23.34375 6.203125 30.609375 6.203125 
Q 37.796875 6.203125 41.984375 11.859375 
Q 46.1875 17.53125 46.1875 27.296875 
Q 46.1875 37.015625 41.984375 42.703125 
Q 37.796875 48.390625 30.609375 48.390625 
z
M 30.609375 56 
Q 42.328125 56 49.015625 48.375 
Q 55.71875 40.765625 55.71875 27.296875 
Q 55.71875 13.875 49.015625 6.21875 
Q 42.328125 -1.421875 30.609375 -1.421875 
Q 18.84375 -1.421875 12.171875 6.21875 
Q 5.515625 13.875 5.515625 27.296875 
Q 5.515625 40.765625 12.171875 48.375 
Q 18.84375 56 30.609375 56 
z
" id="DejaVuSans-6f"/>
      <path d="M 54.890625 33.015625 
L 54.890625 0 
L 45.90625 0 
L 45.90625 32.71875 
Q 45.90625 40.484375 42.875 44.328125 
Q 39.84375 48.1875 33.796875 48.1875 
Q 26.515625 48.1875 22.3125 43.546875 
Q 18.109375 38.921875 18.109375 30.90625 
L 18.109375 0 
L 9.078125 0 
L 9.078125 54.6875 
L 18.109375 54.6875 
L 18.109375 46.1875 
Q 21.34375 51.125 25.703125 53.5625 
Q 30.078125 56 35.796875 56 
Q 45.21875 56 50.046875 50.171875 
Q 54.890625 44.34375 54.890625 33.015625 
z
" id="DejaVuSans-6e"/>
     </defs>
     <g transform="translate(221.666406 331.916562)scale(0.1 -0.1)">
      <use xlink:href="#DejaVuSans-49"/>
      <use x="29.492188" xlink:href="#DejaVuSans-74"/>
      <use x="68.701172" xlink:href="#DejaVuSans-65"/>
      <use x="130.224609" xlink:href="#DejaVuSans-72"/>
      <use x="171.337891" xlink:href="#DejaVuSans-61"/>
      <use x="232.617188" xlink:href="#DejaVuSans-74"/>
      <use x="271.826172" xlink:href="#DejaVuSans-69"/>
      <use x="299.609375" xlink:href="#DejaVuSans-6f"/>
      <use x="360.791016" xlink:href="#DejaVuSans-6e"/>
     </g>
    </g>
   </g>
   <g id="matplotlib.axis_2">
    <g id="ytick_1">
     <g id="line2d_10">
      <defs>
       <path d="M 0 0 
L -3.5 0 
" id="mc0ea0d4be9" style="stroke:#000000;stroke-width:0.8;"/>
      </defs>
      <g>
       <use style="stroke:#000000;stroke-width:0.8;" x="38.27" xlink:href="#mc0ea0d4be9" y="303.64"/>
      </g>
     </g>
     <g id="text_11">
      <!-- 0 -->
      <g transform="translate(24.9075 307.439219)scale(0.1 -0.1)">
       <use xlink:href="#DejaVuSans-30"/>
      </g>
     </g>
    </g>
    <g id="ytick_2">
     <g id="line2d_11">
      <g>
       <use style="stroke:#000000;stroke-width:0.8;" x="38.27" xlink:href="#mc0ea0d4be9" y="267.53"/>
      </g>
     </g>
     <g id="text_12">
      <!-- 1 -->
      <g transform="translate(24.9075 271.329219)scale(0.1 -0.1)">
       <use xlink:href="#DejaVuSans-31"/>
      </g>
     </g>
    </g>
    <g id="ytick_3">
     <g id="line2d_12">
      <g>
       <use style="stroke:#000000;stroke-width:0.8;" x="38.27" xlink:href="#mc0ea0d4be9" y="231.42"/>
      </g>
     </g>
     <g id="text_13">
      <!-- 2 -->
      <g transform="translate(24.9075 235.219219)scale(0.1 -0.1)">
       <use xlink:href="#DejaVuSans-32"/>
      </g>
     </g>
    </g>
    <g id="ytick_4">
     <g id="line2d_13">
      <g>
       <use style="stroke:#000000;stroke-width:0.8;" x="38.27" xlink:href="#mc0ea0d4be9" y="195.31"/>
      </g>
     </g>
     <g id="text_14">
      <!-- 3 -->
      <defs>
       <path d="M 40.578125 39.3125 
Q 47.65625 37.796875 51.625 33 
Q 55.609375 28.21875 55.609375 21.1875 
Q 55.609375 10.40625 48.1875 4.484375 
Q 40.765625 -1.421875 27.09375 -1.421875 
Q 22.515625 -1.421875 17.65625 -0.515625 
Q 12.796875 0.390625 7.625 2.203125 
L 7.625 11.71875 
Q 11.71875 9.328125 16.59375 8.109375 
Q 21.484375 6.890625 26.8125 6.890625 
Q 36.078125 6.890625 40.9375 10.546875 
Q 45.796875 14.203125 45.796875 21.1875 
Q 45.796875 27.640625 41.28125 31.265625 
Q 36.765625 34.90625 28.71875 34.90625 
L 20.21875 34.90625 
L 20.21875 43.015625 
L 29.109375 43.015625 
Q 36.375 43.015625 40.234375 45.921875 
Q 44.09375 48.828125 44.09375 54.296875 
Q 44.09375 59.90625 40.109375 62.90625 
Q 36.140625 65.921875 28.71875 65.921875 
Q 24.65625 65.921875 20.015625 65.03125 
Q 15.375 64.15625 9.8125 62.3125 
L 9.8125 71.09375 
Q 15.4375 72.65625 20.34375 73.4375 
Q 25.25 74.21875 29.59375 74.21875 
Q 40.828125 74.21875 47.359375 69.109375 
Q 53.90625 64.015625 53.90625 55.328125 
Q 53.90625 49.265625 50.4375 45.09375 
Q 46.96875 40.921875 40.578125 39.3125 
z
" id="DejaVuSans-33"/>
      </defs>
      <g transform="translate(24.9075 199.109219)scale(0.1 -0.1)">
       <use xlink:href="#DejaVuSans-33"/>
      </g>
     </g>
    </g>
    <g id="ytick_5">
     <g id="line2d_14">
      <g>
       <use style="stroke:#000000;stroke-width:0.8;" x="38.27" xlink:href="#mc0ea0d4be9" y="159.2"/>
      </g>
     </g>
     <g id="text_15">
      <!-- 4 -->
      <defs>
       <path d="M 37.796875 64.3125 
L 12.890625 25.390625 
L 37.796875 25.390625 
z
M 35.203125 72.90625 
L 47.609375 72.90625 
L 47.609375 25.390625 
L 58.015625 25.390625 
L 58.015625 17.1875 
L 47.609375 17.1875 
L 47.609375 0 
L 37.796875 0 
L 37.796875 17.1875 
L 4.890625 17.1875 
L 4.890625 26.703125 
z
" id="DejaVuSans-34"/>
      </defs>
      <g transform="translate(24.9075 162.999219)scale(0.1 -0.1)">
       <use xlink:href="#DejaVuSans-34"/>
      </g>
     </g>
    </g>
    <g id="ytick_6">
     <g id="line2d_15">
      <g>
       <use style="stroke:#000000;stroke-width:0.8;" x="38.27" xlink:href="#mc0ea0d4be9" y="123.09"/>
      </g>
     </g>
     <g id="text_16">
      <!-- 5 -->
      <g transform="translate(24.9075 126.889219)scale(0.1 -0.1)">
       <use xlink:href="#DejaVuSans-35"/>
      </g>
     </g>
    </g>
    <g id="ytick_7">
     <g id="line2d_16">
      <g>
       <use style="stroke:#000000;stroke-width:0.8;" x="38.27" xlink:href="#mc0ea0d4be9" y="86.98"/>
      </g>
     </g>
     <g id="text_17">
      <!-- 6 -->
      <defs>
       <path d="M 33.015625 40.375 
Q 26.375 40.375 22.484375 35.828125 
Q 18.609375 31.296875 18.609375 23.390625 
Q 18.609375 15.53125 22.484375 10.953125 
Q 26.375 6.390625 33.015625 6.390625 
Q 39.65625 6.390625 43.53125 10.953125 
Q 47.40625 15.53125 47.40625 23.390625 
Q 47.40625 31.296875 43.53125 35.828125 
Q 39.65625 40.375 33.015625 40.375 
z
M 52.59375 71.296875 
L 52.59375 62.3125 
Q 48.875 64.0625 45.09375 64.984375 
Q 41.3125 65.921875 37.59375 65.921875 
Q 27.828125 65.921875 22.671875 59.328125 
Q 17.53125 52.734375 16.796875 39.40625 
Q 19.671875 43.65625 24.015625 45.921875 
Q 28.375 48.1875 33.59375 48.1875 
Q 44.578125 48.1875 50.953125 41.515625 
Q 57.328125 34.859375 57.328125 23.390625 
Q 57.328125 12.15625 50.6875 5.359375 
Q 44.046875 -1.421875 33.015625 -1.421875 
Q 20.359375 -1.421875 13.671875 8.265625 
Q 6.984375 17.96875 6.984375 36.375 
Q 6.984375 53.65625 15.1875 63.9375 
Q 23.390625 74.21875 37.203125 74.21875 
Q 40.921875 74.21875 44.703125 73.484375 
Q 48.484375 72.75 52.59375 71.296875 
z
" id="DejaVuSans-36"/>
      </defs>
      <g transform="translate(24.9075 90.779219)scale(0.1 -0.1)">
       <use xlink:href="#DejaVuSans-36"/>
      </g>
     </g>
    </g>
    <g id="ytick_8">
     <g id="line2d_17">
      <g>
       <use style="stroke:#000000;stroke-width:0.8;" x="38.27" xlink:href="#mc0ea0d4be9" y="50.87"/>
      </g>
     </g>
     <g id="text_18">
      <!-- 7 -->
      <g transform="translate(24.9075 54.669219)scale(0.1 -0.1)">
       <use xlink:href="#DejaVuSans-37"/>
      </g>
     </g>
    </g>
    <g id="ytick_9">
     <g id="line2d_18">
      <g>
       <use style="stroke:#000000;stroke-width:0.8;" x="38.27" xlink:href="#mc0ea0d4be9" y="14.76"/>
      </g>
     </g>
     <g id="text_19">
      <!-- 8 -->
      <defs>
       <path d="M 31.78125 34.625 
Q 24.75 34.625 20.71875 30.859375 
Q 16.703125 27.09375 16.703125 20.515625 
Q 16.703125 13.921875 20.71875 10.15625 
Q 24.75 6.390625 31.78125 6.390625 
Q 38.8125 6.390625 42.859375 10.171875 
Q 46.921875 13.96875 46.921875 20.515625 
Q 46.921875 27.09375 42.890625 30.859375 
Q 38.875 34.625 31.78125 34.625 
z
M 21.921875 38.8125 
Q 15.578125 40.375 12.03125 44.71875 
Q 8.5 49.078125 8.5 55.328125 
Q 8.5 64.0625 14.71875 69.140625 
Q 20.953125 74.21875 31.78125 74.21875 
Q 42.671875 74.21875 48.875 69.140625 
Q 55.078125 64.0625 55.078125 55.328125 
Q 55.078125 49.078125 51.53125 44.71875 
Q 48 40.375 41.703125 38.8125 
Q 48.828125 37.15625 52.796875 32.3125 
Q 56.78125 27.484375 56.78125 20.515625 
Q 56.78125 9.90625 50.3125 4.234375 
Q 43.84375 -1.421875 31.78125 -1.421875 
Q 19.734375 -1.421875 13.25 4.234375 
Q 6.78125 9.90625 6.78125 20.515625 
Q 6.78125 27.484375 10.78125 32.3125 
Q 14.796875 37.15625 21.921875 38.8125 
z
M 18.3125 54.390625 
Q 18.3125 48.734375 21.84375 45.5625 
Q 25.390625 42.390625 31.78125 42.390625 
Q 38.140625 42.390625 41.71875 45.5625 
Q 45.3125 48.734375 45.3125 54.390625 
Q 45.3125 60.0625 41.71875 63.234375 
Q 38.140625 66.40625 31.78125 66.40625 
Q 25.390625 66.40625 21.84375 63.234375 
Q 18.3125 60.0625 18.3125 54.390625 
z
" id="DejaVuSans-38"/>
      </defs>
      <g transform="translate(24.9075 18.559219)scale(0.1 -0.1)">
       <use xlink:href="#DejaVuSans-38"/>
      </g>
     </g>
    </g>
    <g id="ytick_10">
     <g id="line2d_19">
      <path clip-path="url(#pd34ee36b68)" d="M 38.27 303.64 
L 447.48 303.64 
" style="fill:none;stroke:#b0b0b0;stroke-linecap:square;stroke-width:0.8;"/>
     </g>
     <g id="line2d_20">
      <defs>
       <path d="M 0 0 
L -2 0 
" id="m4626117296" style="stroke:#000000;stroke-width:0.6;"/>
      </defs>
      <g>
       <use style="stroke:#000000;stroke-width:0.6;" x="38.27" xlink:href="#m4626117296" y="303.64"/>
      </g>
     </g>
    </g>
    <g id="ytick_11">
     <g id="line2d_21">
      <path clip-path="url(#pd34ee36b68)" d="M 38.27 285.585 
L 447.48 285.585 
" style="fill:none;stroke:#b0b0b0;stroke-linecap:square;stroke-width:0.8;"/>
     </g>
     <g id="line2d_22">
      <g>
       <use style="stroke:#000000;stroke-width:0.6;" x="38.27" xlink:href="#m4626117296" y="285.585"/>
      </g>
     </g>
    </g>
    <g id="ytick_12">
     <g id="line2d_23">
      <path clip-path="url(#pd34ee36b68)" d="M 38.27 267.53 
L 447.48 267.53 
" style="fill:none;stroke:#b0b0b0;stroke-linecap:square;stroke-width:0.8;"/>
     </g>
     <g id="line2d_24">
      <g>
       <use style="stroke:#000000;stroke-width:0.6;" x="38.27" xlink:href="#m4626117296" y="267.53"/>
      </g>
     </g>
    </g>
    <g id="ytick_13">
     <g id="line2d_25">
      <path clip-path="url(#pd34ee36b68)" d="M 38.27 249.475 
L 447.48 249.475 
" style="fill:none;stroke:#b0b0b0;stroke-linecap:square;stroke-width:0.8;"/>
     </g>
     <g id="line2d_26">
      <g>
       <use style="stroke:#000000;stroke-width:0.6;" x="38.27" xlink:href="#m4626117296" y="249.475"/>
      </g>
     </g>
    </g>
    <g id="ytick_14">
     <g id="line2d_27">
      <path clip-path="url(#pd34ee36b68)" d="M 38.27 231.42 
L 447.48 231.42 
" style="fill:none;stroke:#b0b0b0;stroke-linecap:square;stroke-width:0.8;"/>
     </g>
     <g id="line2d_28">
      <g>
       <use style="stroke:#000000;stroke-width:0.6;" x="38.27" xlink:href="#m4626117296" y="231.42"/>
      </g>
     </g>
    </g>
    <g id="ytick_15">
     <g id="line2d_29">
      <path clip-path="url(#pd34ee36b68)" d="M 38.27 213.365 
L 447.48 213.365 
" style="fill:none;stroke:#b0b0b0;stroke-linecap:square;stroke-width:0.8;"/>
     </g>
     <g id="line2d_30">
      <g>
       <use style="stroke:#000000;stroke-width:0.6;" x="38.27" xlink:href="#m4626117296" y="213.365"/>
      </g>
     </g>
    </g>
    <g id="ytick_16">
     <g id="line2d_31">
      <path clip-path="url(#pd34ee36b68)" d="M 38.27 195.31 
L 447.48 195.31 
" style="fill:none;stroke:#b0b0b0;stroke-linecap:square;stroke-width:0.8;"/>
     </g>
     <g id="line2d_32">
      <g>
       <use style="stroke:#000000;stroke-width:0.6;" x="38.27" xlink:href="#m4626117296" y="195.31"/>
      </g>
     </g>
    </g>
    <g id="ytick_17">
     <g id="line2d_33">
      <path clip-path="url(#pd34ee36b68)" d="M 38.27 177.255 
L 447.48 177.255 
" style="fill:none;stroke:#b0b0b0;stroke-linecap:square;stroke-width:0.8;"/>
     </g>
     <g id="line2d_34">
      <g>
       <use style="stroke:#000000;stroke-width:0.6;" x="38.27" xlink:href="#m4626117296" y="177.255"/>
      </g>
     </g>
    </g>
    <g id="ytick_18">
     <g id="line2d_35">
      <path clip-path="url(#pd34ee36b68)" d="M 38.27 159.2 
L 447.48 159.2 
" style="fill:none;stroke:#b0b0b0;stroke-linecap:square;stroke-width:0.8;"/>
     </g>
     <g id="line2d_36">
      <g>
       <use style="stroke:#000000;stroke-width:0.6;" x="38.27" xlink:href="#m4626117296" y="159.2"/>
      </g>
     </g>
    </g>
    <g id="ytick_19">
     <g id="line2d_37">
      <path clip-path="url(#pd34ee36b68)" d="M 38.27 141.145 
L 447.48 141.145 
" style="fill:none;stroke:#b0b0b0;stroke-linecap:square;stroke-width:0.8;"/>
     </g>
     <g id="line2d_38">
      <g>
       <use style="stroke:#000000;stroke-width:0.6;" x="38.27" xlink:href="#m4626117296" y="141.145"/>
      </g>
     </g>
    </g>
    <g id="ytick_20">
     <g id="line2d_39">
      <path clip-path="url(#pd34ee36b68)" d="M 38.27 123.09 
L 447.48 123.09 
" style="fill:none;stroke:#b0b0b0;stroke-linecap:square;stroke-width:0.8;"/>
     </g>
     <g id="line2d_40">
      <g>
       <use style="stroke:#000000;stroke-width:0.6;" x="38.27" xlink:href="#m4626117296" y="123.09"/>
      </g>
     </g>
    </g>
    <g id="ytick_21">
     <g id="line2d_41">
      <path clip-path="url(#pd34ee36b68)" d="M 38.27 105.035 
L 447.48 105.035 
" style="fill:none;stroke:#b0b0b0;stroke-linecap:square;stroke-width:0.8;"/>
     </g>
     <g id="line2d_42">
      <g>
       <use style="stroke:#000000;stroke-width:0.6;" x="38.27" xlink:href="#m4626117296" y="105.035"/>
      </g>
     </g>
    </g>
    <g id="ytick_22">
     <g id="line2d_43">
      <path clip-path="url(#pd34ee36b68)" d="M 38.27 86.98 
L 447.48 86.98 
" style="fill:none;stroke:#b0b0b0;stroke-linecap:square;stroke-width:0.8;"/>
     </g>
     <g id="line2d_44">
      <g>
       <use style="stroke:#000000;stroke-width:0.6;" x="38.27" xlink:href="#m4626117296" y="86.98"/>
      </g>
     </g>
    </g>
    <g id="ytick_23">
     <g id="line2d_45">
      <path clip-path="url(#pd34ee36b68)" d="M 38.27 68.925 
L 447.48 68.925 
" style="fill:none;stroke:#b0b0b0;stroke-linecap:square;stroke-width:0.8;"/>
     </g>
     <g id="line2d_46">
      <g>
       <use style="stroke:#000000;stroke-width:0.6;" x="38.27" xlink:href="#m4626117296" y="68.925"/>
      </g>
     </g>
    </g>
    <g id="ytick_24">
     <g id="line2d_47">
      <path clip-path="url(#pd34ee36b68)" d="M 38.27 50.87 
L 447.48 50.87 
" style="fill:none;stroke:#b0b0b0;stroke-linecap:square;stroke-width:0.8;"/>
     </g>
     <g id="line2d_48">
      <g>
       <use style="stroke:#000000;stroke-width:0.6;" x="38.27" xlink:href="#m4626117296" y="50.87"/>
      </g>
     </g>
    </g>
    <g id="ytick_25">
     <g id="line2d_49">
      <path clip-path="url(#pd34ee36b68)" d="M 38.27 32.815 
L 447.48 32.815 
" style="fill:none;stroke:#b0b0b0;stroke-linecap:square;stroke-width:0.8;"/>
     </g>
     <g id="line2d_50">
      <g>
       <use style="stroke:#000000;stroke-width:0.6;" x="38.27" xlink:href="#m4626117296" y="32.815"/>
      </g>
     </g>
    </g>
    <g id="ytick_26">
     <g id="line2d_51">
      <path clip-path="url(#pd34ee36b68)" d="M 38.27 14.76 
L 447.48 14.76 
" style="fill:none;stroke:#b0b0b0;stroke-linecap:square;stroke-width:0.8;"/>
     </g>
     <g id="line2d_52">
      <g>
       <use style="stroke:#000000;stroke-width:0.6;" x="38.27" xlink:href="#m4626117296" y="14.76"/>
      </g>
     </g>
    </g>
    <g id="text_20">
     <!-- Loss -->
     <defs>
      <path d="M 9.8125 72.90625 
L 19.671875 72.90625 
L 19.671875 8.296875 
L 55.171875 8.296875 
L 55.171875 0 
L 9.8125 0 
z
" id="DejaVuSans-4c"/>
      <path d="M 44.28125 53.078125 
L 44.28125 44.578125 
Q 40.484375 46.53125 36.375 47.5 
Q 32.28125 48.484375 27.875 48.484375 
Q 21.1875 48.484375 17.84375 46.4375 
Q 14.5 44.390625 14.5 40.28125 
Q 14.5 37.15625 16.890625 35.375 
Q 19.28125 33.59375 26.515625 31.984375 
L 29.59375 31.296875 
Q 39.15625 29.25 43.1875 25.515625 
Q 47.21875 21.78125 47.21875 15.09375 
Q 47.21875 7.46875 41.1875 3.015625 
Q 35.15625 -1.421875 24.609375 -1.421875 
Q 20.21875 -1.421875 15.453125 -0.5625 
Q 10.6875 0.296875 5.421875 2 
L 5.421875 11.28125 
Q 10.40625 8.6875 15.234375 7.390625 
Q 20.0625 6.109375 24.8125 6.109375 
Q 31.15625 6.109375 34.5625 8.28125 
Q 37.984375 10.453125 37.984375 14.40625 
Q 37.984375 18.0625 35.515625 20.015625 
Q 33.0625 21.96875 24.703125 23.78125 
L 21.578125 24.515625 
Q 13.234375 26.265625 9.515625 29.90625 
Q 5.8125 33.546875 5.8125 39.890625 
Q 5.8125 47.609375 11.28125 51.796875 
Q 16.75 56 26.8125 56 
Q 31.78125 56 36.171875 55.265625 
Q 40.578125 54.546875 44.28125 53.078125 
z
" id="DejaVuSans-73"/>
     </defs>
     <g transform="translate(18.827813 170.253906)rotate(-90)scale(0.1 -0.1)">
      <use xlink:href="#DejaVuSans-4c"/>
      <use x="55.697266" xlink:href="#DejaVuSans-6f"/>
      <use x="116.878906" xlink:href="#DejaVuSans-73"/>
      <use x="168.978516" xlink:href="#DejaVuSans-73"/>
     </g>
    </g>
   </g>
   <g id="line2d_53">
    <path clip-path="url(#pd34ee36b68)" d="M 93.137402 -1 
L 94.834364 68.498794 
L 95.578754 92.645153 
L 95.764852 99.408918 
L 95.950949 99.546063 
L 96.323145 106.098042 
L 96.69534 102.697491 
L 97.253632 111.721453 
L 97.43973 113.727146 
L 98.742413 146.972648 
L 99.114608 153.305656 
L 99.300706 155.299109 
L 99.486804 160.294494 
L 100.231194 167.79678 
L 100.603389 172.388708 
L 101.161682 175.281877 
L 101.719975 173.452942 
L 101.906072 172.233255 
L 102.09217 172.870271 
L 102.464365 177.912852 
L 102.650463 179.03562 
L 102.83656 177.662285 
L 103.022658 178.236145 
L 103.208756 180.727843 
L 103.394853 179.699358 
L 103.580951 182.052105 
L 104.139243 184.078237 
L 104.325341 185.823939 
L 104.511439 184.193248 
L 105.069731 187.8071 
L 105.255829 189.128654 
L 105.441927 191.421711 
L 105.628024 189.620472 
L 105.814122 189.451477 
L 106.000219 189.432989 
L 106.186317 190.873562 
L 106.372415 187.763588 
L 106.930707 191.067147 
L 107.116805 191.760531 
L 107.302903 190.609597 
L 107.489 191.579512 
L 107.861195 190.95647 
L 108.047293 193.351538 
L 108.233391 193.877011 
L 108.419488 194.88661 
L 108.791683 194.040986 
L 108.977781 195.123239 
L 109.163879 195.509111 
L 109.349976 196.278254 
L 109.536074 194.807529 
L 109.722171 194.719638 
L 109.908269 193.741273 
L 111.024854 198.180889 
L 111.210952 198.174715 
L 111.39705 198.579472 
L 111.583147 199.387 
L 111.955342 201.663446 
L 112.14144 202.962034 
L 112.327538 203.07643 
L 112.513635 202.923866 
L 112.699733 202.602415 
L 113.071928 204.339378 
L 113.258026 204.472407 
L 113.444123 205.060928 
L 113.630221 203.691456 
L 113.816318 203.204007 
L 114.374611 204.432289 
L 114.560709 206.329544 
L 114.932904 203.25012 
L 115.119002 203.887389 
L 115.305099 205.68155 
L 115.491197 205.967397 
L 115.863392 204.964153 
L 116.235587 207.034014 
L 116.421685 206.55729 
L 116.607782 208.848686 
L 116.79388 209.314108 
L 116.979977 208.350621 
L 117.166075 208.661925 
L 117.352173 207.682117 
L 117.53827 208.852442 
L 117.910465 205.313481 
L 118.096563 205.325108 
L 118.468758 209.007281 
L 118.654856 209.215925 
L 118.840953 207.138986 
L 119.027051 202.824635 
L 119.399246 202.008694 
L 119.585344 202.415798 
L 119.771441 202.24915 
L 119.957539 201.051996 
L 120.143637 202.182708 
L 120.329734 202.539691 
L 120.515832 201.5419 
L 120.701929 201.59852 
L 121.260222 202.747071 
L 121.44632 202.212318 
L 122.004613 205.19179 
L 122.19071 204.972675 
L 122.376808 204.123404 
L 122.749003 204.47544 
L 122.935101 205.520861 
L 123.121198 205.588711 
L 123.307296 205.239961 
L 123.679491 207.962005 
L 123.865588 208.05228 
L 124.237784 208.831281 
L 124.423881 210.83015 
L 124.609979 210.65137 
L 124.796076 210.737167 
L 124.982174 211.195078 
L 125.168272 210.506677 
L 125.354369 211.802809 
L 125.540467 209.900787 
L 125.726564 210.09152 
L 126.09876 213.151373 
L 126.470955 214.55255 
L 126.657052 214.866418 
L 126.84315 215.897358 
L 127.029248 216.078666 
L 127.215345 217.61428 
L 127.401443 217.421092 
L 127.773638 220.29422 
L 127.959736 219.971397 
L 128.331931 222.451432 
L 128.518028 219.78998 
L 128.890224 221.578039 
L 129.076321 221.510116 
L 129.262419 220.263924 
L 129.448516 220.774122 
L 129.634614 219.193912 
L 129.820711 220.39262 
L 130.006809 222.472411 
L 130.565102 224.620776 
L 130.937297 223.4914 
L 131.309492 223.989609 
L 131.681687 219.099015 
L 131.867785 220.155594 
L 132.053883 219.791533 
L 132.23998 218.51815 
L 132.426078 218.738204 
L 132.612175 218.168027 
L 132.798273 218.040559 
L 133.170468 218.635977 
L 133.356566 219.384104 
L 133.542663 219.526305 
L 133.728761 221.434682 
L 134.100956 220.66052 
L 134.287054 220.617802 
L 134.473151 220.744259 
L 134.659249 222.549723 
L 135.031444 220.059758 
L 135.217542 220.877685 
L 135.403639 222.607246 
L 135.589737 222.86861 
L 135.775835 222.214983 
L 135.961932 223.673972 
L 136.706322 224.421629 
L 137.63681 230.972886 
L 137.822908 230.356272 
L 138.381201 233.865586 
L 138.567298 233.882955 
L 138.753396 233.206651 
L 138.939494 234.827195 
L 139.125591 235.220397 
L 139.311689 236.856469 
L 139.497786 236.621176 
L 139.683884 237.136321 
L 140.242177 240.244959 
L 140.428274 240.224882 
L 140.614372 236.672633 
L 140.80047 237.269242 
L 140.986567 236.303625 
L 141.172665 236.341287 
L 141.358762 235.672566 
L 141.54486 234.39142 
L 141.730958 234.039925 
L 141.917055 233.034334 
L 142.103153 232.718552 
L 142.475348 233.442052 
L 142.661445 232.781166 
L 142.847543 233.595916 
L 143.219738 237.241907 
L 143.591933 237.090028 
L 143.778031 236.833503 
L 144.150226 238.995806 
L 144.336324 239.019205 
L 144.522421 238.369803 
L 144.708519 236.345187 
L 144.894617 237.002606 
L 145.080714 235.956102 
L 145.452909 237.719751 
L 145.825105 239.371747 
L 146.011202 239.524889 
L 146.1973 239.957235 
L 146.383397 240.938054 
L 146.569495 241.227079 
L 146.755593 241.988314 
L 146.94169 242.036737 
L 147.127788 243.821582 
L 147.499983 244.309862 
L 147.872178 245.947884 
L 148.058276 246.137894 
L 148.244373 245.892382 
L 148.430471 246.185885 
L 148.616569 245.587 
L 148.802666 246.206648 
L 149.174861 245.707427 
L 149.547056 246.025303 
L 149.919252 248.706363 
L 150.105349 249.134338 
L 150.291447 249.122422 
L 150.477544 247.94993 
L 150.663642 248.594313 
L 150.84974 249.750736 
L 151.221935 249.525771 
L 151.59413 248.752114 
L 151.780228 248.390942 
L 152.33852 248.992607 
L 152.524618 247.821162 
L 152.896813 249.313986 
L 153.082911 249.754058 
L 153.269008 250.995231 
L 153.455106 250.759288 
L 153.641204 249.943599 
L 153.827301 250.218722 
L 154.013399 249.609726 
L 154.385594 250.129024 
L 154.571692 248.637934 
L 154.757789 249.240429 
L 154.943887 248.101664 
L 155.129984 248.678125 
L 155.316082 248.381517 
L 155.502179 248.418458 
L 155.688277 247.710593 
L 155.874375 247.925664 
L 156.060472 247.535387 
L 156.24657 248.285609 
L 156.432667 247.412288 
L 156.618765 247.716876 
L 156.804863 247.559473 
L 156.99096 247.762953 
L 157.177058 248.849214 
L 157.363155 248.823034 
L 157.549253 247.715901 
L 157.735351 248.080757 
L 157.921448 248.003373 
L 158.107546 247.789891 
L 158.293643 248.579219 
L 158.479741 248.27882 
L 158.851936 250.636586 
L 159.038034 251.079223 
L 159.224131 252.102472 
L 159.410229 251.673846 
L 159.968522 254.285646 
L 160.154619 254.387693 
L 160.340717 255.826352 
L 160.526815 256.046839 
L 160.712912 256.018999 
L 160.89901 256.569098 
L 161.085107 258.014834 
L 161.271205 257.53616 
L 161.457303 257.902496 
L 161.6434 257.388434 
L 161.829498 257.528866 
L 162.015595 257.963486 
L 162.38779 259.540157 
L 162.573888 259.423197 
L 162.759986 259.56937 
L 162.946083 258.411683 
L 163.132181 258.175307 
L 163.318278 259.293417 
L 163.504376 259.378131 
L 163.876571 260.079604 
L 164.248766 260.91082 
L 164.434864 260.861891 
L 164.620962 261.530973 
L 164.807059 261.723223 
L 165.179254 260.280268 
L 165.365352 260.028147 
L 165.55145 259.279587 
L 165.737547 257.952292 
L 165.923645 257.660162 
L 166.109742 256.492726 
L 166.29584 256.96212 
L 166.481938 256.818185 
L 166.854133 257.095149 
L 167.226328 258.535974 
L 167.598523 260.024753 
L 167.970718 259.141105 
L 168.156816 259.907396 
L 168.342914 259.872983 
L 168.715109 258.132192 
L 168.901206 258.84067 
L 169.087304 258.649468 
L 169.459499 260.093543 
L 169.645597 259.594503 
L 169.831694 260.279509 
L 170.017792 260.215089 
L 170.203889 260.458579 
L 170.389987 260.144674 
L 170.576085 260.268026 
L 170.94828 259.645706 
L 171.320475 259.387773 
L 171.69267 259.876305 
L 171.878768 260.634651 
L 172.064865 260.277343 
L 172.250963 259.506936 
L 172.809256 260.42041 
L 172.995353 260.777936 
L 173.367549 260.662636 
L 173.553646 260.87146 
L 173.739744 260.741681 
L 173.925841 260.970907 
L 174.670232 257.996563 
L 174.856329 257.587978 
L 175.042427 258.107998 
L 175.414622 258.136056 
L 175.786817 257.49485 
L 175.972915 257.690603 
L 176.159012 259.415758 
L 176.531208 257.839954 
L 177.0895 259.244091 
L 177.275598 259.38037 
L 177.461696 258.684386 
L 177.647793 259.79058 
L 178.019988 259.002262 
L 178.392184 259.691675 
L 178.578281 259.825823 
L 178.764379 260.938336 
L 178.950476 260.628693 
L 179.508769 261.046341 
L 180.067062 263.146679 
L 180.25316 262.434518 
L 180.439257 262.745497 
L 180.625355 263.400388 
L 180.811452 262.522879 
L 180.99755 262.292497 
L 181.183648 261.369815 
L 181.555843 263.404938 
L 181.928038 264.170687 
L 182.300233 265.345273 
L 182.486331 266.025657 
L 182.672428 266.091305 
L 183.044623 266.654116 
L 183.602916 268.128487 
L 183.789014 267.734671 
L 183.975111 267.98365 
L 184.161209 267.923093 
L 184.347307 268.033121 
L 184.533404 267.850007 
L 184.719502 268.366524 
L 185.091697 268.355114 
L 185.277795 268.266933 
L 185.836087 269.279205 
L 186.022185 268.926085 
L 186.208283 269.453471 
L 186.580478 269.172752 
L 186.766575 270.37666 
L 186.952673 270.178344 
L 187.138771 269.403748 
L 187.324868 269.877872 
L 187.510966 269.749862 
L 187.697063 270.663481 
L 188.255356 270.055642 
L 188.441454 270.685147 
L 188.627551 270.69645 
L 188.999746 270.345605 
L 189.185844 270.890324 
L 189.371942 270.465707 
L 189.744137 271.045164 
L 189.930234 270.72819 
L 190.116332 269.462066 
L 190.488527 270.087707 
L 190.674625 269.877222 
L 190.860722 269.928643 
L 191.232918 270.943984 
L 191.419015 271.094815 
L 191.605113 271.516436 
L 191.79121 270.739493 
L 191.977308 270.940589 
L 192.721698 269.871661 
L 192.907796 270.145483 
L 193.093894 270.204559 
L 193.279991 268.940962 
L 193.466089 268.872353 
L 193.838284 268.982922 
L 194.024382 268.94024 
L 194.210479 269.032393 
L 194.582674 270.242836 
L 194.954869 271.179818 
L 195.140967 270.514419 
L 195.327065 270.429055 
L 195.69926 270.860173 
L 195.885357 270.666262 
L 196.071455 270.695655 
L 196.257553 270.497989 
L 197.560236 272.803288 
L 197.932431 273.768761 
L 198.304626 273.240002 
L 198.490724 273.54737 
L 199.049017 273.022295 
L 199.235114 273.147958 
L 199.607309 274.001562 
L 199.793407 274.167018 
L 199.979505 274.674652 
L 200.165602 274.603516 
L 200.3517 274.715565 
L 200.537797 275.314124 
L 200.723895 274.835811 
L 200.909992 275.022031 
L 201.282188 274.164129 
L 201.468285 274.38357 
L 201.654383 273.792918 
L 201.84048 273.891354 
L 202.026578 274.382414 
L 202.212676 274.405994 
L 202.398773 274.592863 
L 202.584871 274.377792 
L 202.770968 275.300583 
L 202.957066 275.313149 
L 203.143164 275.068612 
L 203.329261 275.441845 
L 203.515359 274.512085 
L 203.701456 274.511941 
L 205.00414 270.987244 
L 205.190237 271.251027 
L 205.376335 271.740462 
L 205.562432 271.308803 
L 205.74853 270.553201 
L 206.120725 272.028728 
L 206.49292 271.071452 
L 206.679018 271.235103 
L 206.865116 270.848401 
L 207.051213 270.905454 
L 207.237311 271.126303 
L 207.423408 270.888736 
L 207.609506 269.321634 
L 208.167799 269.110137 
L 208.353896 268.407365 
L 208.539994 268.275238 
L 208.912189 269.7924 
L 209.098287 269.993352 
L 209.284384 270.375649 
L 209.470482 270.090596 
L 209.656579 270.592597 
L 210.214872 272.944045 
L 210.40097 272.344077 
L 210.773165 271.959253 
L 210.959263 272.106618 
L 211.14536 272.803107 
L 211.517555 269.524572 
L 211.703653 269.157875 
L 211.889751 269.105624 
L 212.075848 270.121831 
L 212.448043 269.789692 
L 212.634141 270.667056 
L 212.820239 270.691142 
L 213.006336 271.417061 
L 213.192434 271.533155 
L 213.378531 271.322922 
L 213.750726 272.163166 
L 214.122922 271.501197 
L 214.309019 272.385242 
L 214.495117 272.569692 
L 214.681214 273.478184 
L 215.05341 273.811262 
L 215.239507 274.039405 
L 215.425605 274.032942 
L 215.611702 274.598605 
L 215.7978 274.24841 
L 216.169995 274.249854 
L 217.100483 276.56093 
L 217.286581 276.527781 
L 217.472678 276.636184 
L 217.658776 277.055276 
L 217.844874 276.759535 
L 218.030971 276.828975 
L 218.217069 277.173609 
L 218.403166 277.232071 
L 218.775362 278.11496 
L 218.961459 278.001431 
L 219.333654 278.095678 
L 219.519752 277.808892 
L 219.70585 278.216357 
L 220.078045 278.297063 
L 220.45024 279.148609 
L 220.636337 279.113005 
L 220.822435 279.855029 
L 221.008533 280.003333 
L 221.19463 279.792487 
L 221.380728 279.977731 
L 221.566825 280.544044 
L 221.752923 280.173158 
L 221.939021 280.502337 
L 222.125118 281.144192 
L 222.497313 281.369591 
L 222.683411 281.3567 
L 222.869509 281.059623 
L 223.241704 281.593798 
L 223.427801 281.02539 
L 223.613899 280.82841 
L 223.799997 281.072622 
L 223.986094 280.798042 
L 224.172192 281.773409 
L 224.544387 281.226234 
L 224.730485 281.368399 
L 224.916582 281.151053 
L 225.10268 280.524256 
L 225.288777 278.948018 
L 225.660973 279.097008 
L 225.84707 279.310779 
L 226.033168 279.083358 
L 226.219265 278.576699 
L 226.405363 278.653036 
L 226.591461 279.051184 
L 226.777558 278.818961 
L 227.149753 279.293735 
L 227.335851 279.149945 
L 227.521948 279.35765 
L 227.708046 279.326595 
L 227.894144 279.116868 
L 228.080241 279.107155 
L 228.266339 279.623239 
L 228.452436 279.492737 
L 228.638534 279.52307 
L 229.010729 280.699498 
L 229.196827 280.671115 
L 229.569022 279.722903 
L 229.75512 280.021966 
L 230.127315 279.336562 
L 230.49951 279.306554 
L 230.685608 278.989184 
L 230.871705 279.165075 
L 231.057803 278.876123 
L 231.2439 278.916711 
L 231.429998 278.263409 
L 231.616096 278.93018 
L 231.802193 278.361772 
L 231.988291 278.507693 
L 232.174388 279.018721 
L 232.360486 278.714567 
L 232.546584 277.86071 
L 232.732681 277.795459 
L 233.290974 278.218632 
L 233.477071 277.99262 
L 233.663169 278.122255 
L 233.849267 278.089864 
L 234.035364 277.695471 
L 234.221462 277.824708 
L 234.593657 277.51669 
L 234.779755 277.679221 
L 235.15195 278.211916 
L 235.338047 278.457536 
L 235.524145 278.398243 
L 235.89634 278.876195 
L 236.082438 278.804878 
L 236.454633 278.148723 
L 236.826828 277.691932 
L 237.012926 278.264636 
L 237.199023 277.875334 
L 237.385121 276.954313 
L 237.757316 276.455634 
L 238.129511 276.798895 
L 238.315609 276.292055 
L 238.501707 277.088786 
L 238.687804 277.096731 
L 238.873902 277.644628 
L 239.246097 277.22734 
L 239.432195 277.18177 
L 239.618292 277.557747 
L 239.80439 277.595663 
L 239.990487 277.768738 
L 240.176585 277.779679 
L 240.362682 278.268572 
L 240.54878 279.155001 
L 240.734878 279.454569 
L 240.920975 279.008322 
L 241.479268 280.328034 
L 241.665366 280.007558 
L 241.851463 280.492407 
L 242.037561 280.030668 
L 242.223658 279.953573 
L 242.595854 280.309437 
L 242.968049 281.11339 
L 243.154146 280.976895 
L 243.526342 281.342472 
L 243.898537 281.613333 
L 244.084634 281.971256 
L 244.270732 281.861445 
L 244.642927 282.177913 
L 244.829025 281.728019 
L 245.015122 281.814863 
L 245.20122 281.544435 
L 245.387318 281.48619 
L 245.573415 281.146756 
L 245.759513 281.222948 
L 245.94561 280.896875 
L 246.131708 281.110682 
L 246.317805 280.482079 
L 246.503903 280.474496 
L 246.690001 280.216996 
L 246.876098 279.151534 
L 247.062196 279.032624 
L 247.248293 278.080295 
L 247.434391 277.82673 
L 247.620489 278.248784 
L 247.806586 278.056751 
L 247.992684 277.640764 
L 248.178781 277.629209 
L 248.364879 277.360081 
L 248.550977 277.322635 
L 248.737074 277.688357 
L 248.923172 277.34607 
L 249.295367 277.207877 
L 249.481465 278.041549 
L 249.667562 277.727247 
L 250.039757 278.638014 
L 250.225855 278.795634 
L 250.411953 278.58439 
L 250.59805 278.954265 
L 250.784148 278.898656 
L 250.970245 278.72002 
L 251.156343 279.038438 
L 251.342441 278.396546 
L 251.528538 278.976762 
L 251.714636 278.461328 
L 252.086831 278.770212 
L 252.272929 277.676874 
L 252.459026 277.341484 
L 252.645124 276.719634 
L 252.831221 276.637014 
L 253.017319 277.150715 
L 253.389514 276.175348 
L 253.575612 276.638531 
L 253.761709 276.606826 
L 253.947807 276.843708 
L 254.133904 276.789615 
L 254.320002 276.974751 
L 254.5061 277.478558 
L 254.878295 279.082347 
L 255.064392 278.948018 
L 255.25049 279.206674 
L 255.622685 280.020991 
L 255.808783 280.127876 
L 255.99488 280.68639 
L 256.180978 280.581959 
L 256.367076 280.659777 
L 256.739271 279.714056 
L 256.925368 280.048651 
L 257.111466 279.78642 
L 257.297564 280.470596 
L 257.483661 280.473991 
L 257.669759 280.624425 
L 257.855856 281.53028 
L 258.041954 281.753332 
L 258.228052 282.156319 
L 258.414149 282.055572 
L 258.786344 282.310906 
L 258.972442 282.220342 
L 259.344637 283.148406 
L 259.530735 283.352499 
L 259.716832 283.138295 
L 260.089027 283.609747 
L 260.275125 283.527019 
L 260.461223 284.021329 
L 260.833418 283.861217 
L 261.019515 284.206898 
L 261.205613 284.05538 
L 261.391711 284.156236 
L 261.950003 282.934273 
L 262.136101 283.06315 
L 262.322199 282.796875 
L 262.508296 282.767662 
L 263.252687 282.089263 
L 263.624882 281.867728 
L 263.810979 281.702922 
L 263.997077 281.938901 
L 264.183175 281.904994 
L 264.369272 282.364096 
L 264.55537 282.178852 
L 264.741467 282.204996 
L 265.113663 282.567576 
L 265.29976 283.238681 
L 265.485858 282.888666 
L 265.671955 282.953159 
L 265.858053 282.771237 
L 266.04415 281.883942 
L 266.230248 282.181019 
L 266.416346 282.058461 
L 266.788541 283.198021 
L 266.974638 283.141328 
L 267.160736 283.511636 
L 268.091224 283.831571 
L 268.277322 283.743607 
L 268.649517 283.920473 
L 268.835614 284.08026 
L 269.021712 283.661926 
L 269.20781 283.873025 
L 269.393907 283.847784 
L 269.580005 283.579126 
L 269.766102 283.509794 
L 269.9522 283.190401 
L 270.138298 283.435119 
L 270.324395 283.118868 
L 270.510493 283.159094 
L 270.69659 283.39417 
L 271.068786 282.772284 
L 271.627078 282.543202 
L 271.813176 282.194018 
L 271.999274 282.135989 
L 272.371469 282.536919 
L 272.557566 282.696092 
L 272.929761 284.052636 
L 273.301957 283.252402 
L 273.488054 283.900541 
L 273.674152 283.520916 
L 274.046347 283.331158 
L 274.232445 283.521855 
L 274.418542 283.253052 
L 274.60464 283.418328 
L 274.790737 283.34878 
L 275.34903 284.05 
L 275.535128 284.0565 
L 275.907323 284.822754 
L 276.093421 284.801919 
L 276.465616 285.687336 
L 276.837811 284.976113 
L 277.023909 285.132469 
L 277.210006 285.605583 
L 277.396104 285.416908 
L 277.582201 284.738221 
L 277.768299 284.963294 
L 277.954397 284.596272 
L 278.140494 284.689833 
L 278.326592 284.312772 
L 278.512689 284.195559 
L 278.884884 284.488375 
L 279.070982 284.419261 
L 279.815372 283.3213 
L 280.187568 283.522541 
L 280.74586 283.920112 
L 280.931958 283.59505 
L 281.118056 283.802899 
L 281.304153 283.843812 
L 281.676348 283.556593 
L 281.862446 283.787697 
L 282.048544 283.762528 
L 282.234641 283.182277 
L 282.606836 282.962981 
L 282.792934 282.276927 
L 282.979032 282.104285 
L 283.165129 282.127287 
L 283.351227 282.345716 
L 283.537324 282.240239 
L 284.095617 282.241828 
L 284.281715 282.124145 
L 284.65391 282.322353 
L 285.026105 281.942801 
L 285.770495 283.309384 
L 286.328788 282.324484 
L 286.514886 282.130501 
L 286.700983 282.41595 
L 286.887081 282.963811 
L 287.073179 282.347377 
L 287.259276 282.384932 
L 287.445374 281.805077 
L 287.631471 281.961289 
L 287.817569 282.638677 
L 288.003667 282.834321 
L 288.375862 283.851142 
L 288.561959 283.686517 
L 288.748057 283.965972 
L 288.934155 283.808099 
L 289.678545 285.107048 
L 289.864643 285.252391 
L 290.05074 284.921045 
L 290.422935 285.323347 
L 290.609033 285.067146 
L 290.795131 285.515994 
L 291.167326 285.587744 
L 291.725618 285.079785 
L 291.911716 284.806649 
L 292.097814 284.872586 
L 292.656106 286.194862 
L 292.842204 285.948339 
L 293.028302 286.194392 
L 293.214399 286.061038 
L 293.400497 285.678344 
L 293.586594 285.833112 
L 293.772692 285.582039 
L 293.95879 286.056922 
L 294.144887 286.058474 
L 294.330985 285.805379 
L 295.075375 286.412208 
L 295.261473 286.439326 
L 295.44757 286.293334 
L 295.819766 286.932806 
L 296.191961 286.830939 
L 296.564156 287.509699 
L 296.750254 287.414694 
L 296.936351 286.819095 
L 297.308546 286.470164 
L 297.494644 286.180201 
L 297.680742 286.310847 
L 297.866839 286.256357 
L 298.239034 285.25268 
L 298.425132 285.444063 
L 298.611229 285.221372 
L 298.983425 285.436046 
L 299.35562 285.222744 
L 300.10001 285.762914 
L 300.286108 285.729259 
L 300.472205 285.197901 
L 300.658303 285.34783 
L 301.030498 285.244483 
L 301.588791 285.545929 
L 302.147084 285.049561 
L 302.333181 285.119325 
L 302.705377 285.741826 
L 302.891474 285.517185 
L 303.263669 286.446729 
L 303.821962 287.347854 
L 304.00806 287.225477 
L 304.380255 286.798368 
L 304.566352 286.837981 
L 304.75245 286.608863 
L 304.938548 286.752364 
L 305.124645 286.665447 
L 305.310743 286.400508 
L 305.49684 285.859725 
L 305.682938 285.737204 
L 305.869036 286.110509 
L 306.055133 285.97571 
L 306.427328 286.051975 
L 306.985621 285.314319 
L 307.171719 285.141353 
L 307.543914 285.357543 
L 307.730012 285.745581 
L 307.916109 285.616199 
L 308.102207 285.659675 
L 308.288304 286.135136 
L 308.474402 285.938409 
L 308.6605 285.959461 
L 308.846597 285.631618 
L 309.218792 285.904935 
L 309.40489 285.490789 
L 309.777085 285.872183 
L 309.963183 285.551165 
L 310.335378 285.748723 
L 310.521476 286.102276 
L 310.707573 286.177529 
L 310.893671 285.858497 
L 311.265866 285.680547 
L 311.638061 285.601358 
L 311.824159 285.88511 
L 312.010256 285.908437 
L 312.568549 285.638732 
L 313.126842 286.510535 
L 313.312939 286.521693 
L 313.499037 286.37209 
L 313.685135 285.468365 
L 314.05733 285.692861 
L 314.243427 285.05393 
L 314.429525 284.822032 
L 314.80172 285.419725 
L 314.987818 285.604138 
L 315.173915 284.992327 
L 315.360013 285.137236 
L 315.546111 284.920287 
L 315.732208 284.910104 
L 315.918306 285.039847 
L 316.104403 284.708033 
L 316.290501 284.864533 
L 316.476599 284.796285 
L 316.848794 285.126295 
L 317.593184 284.212062 
L 318.151477 284.498125 
L 318.337574 284.867205 
L 318.523672 284.974235 
L 319.081965 286.145752 
L 319.268062 285.839287 
L 319.640258 286.010917 
L 320.012453 285.940178 
L 320.384648 285.742259 
L 320.570746 286.175687 
L 320.756843 286.11607 
L 320.942941 286.591566 
L 321.501234 286.00597 
L 321.687331 285.876552 
L 321.873429 286.527724 
L 322.059526 285.816501 
L 322.245624 285.697266 
L 322.431722 285.829031 
L 323.176112 285.705716 
L 323.36221 285.418461 
L 323.734405 285.708352 
L 324.478795 285.778152 
L 324.664893 285.978238 
L 324.85099 285.913745 
L 325.037088 286.206128 
L 325.223185 286.248377 
L 325.409283 286.044319 
L 325.781478 286.118525 
L 325.967576 285.846075 
L 326.153673 285.913709 
L 326.339771 285.746628 
L 326.711966 286.049844 
L 326.898064 286.380467 
L 327.084161 286.421199 
L 327.270259 286.579036 
L 327.456357 286.96043 
L 327.642454 286.933672 
L 327.828552 287.137838 
L 328.014649 287.164235 
L 328.200747 286.91374 
L 328.386845 286.389892 
L 328.572942 286.419827 
L 328.75904 286.035906 
L 328.945137 286.451712 
L 329.50343 285.618582 
L 329.689528 286.180418 
L 329.875625 286.14976 
L 330.061723 286.785874 
L 330.247821 286.472692 
L 330.433918 286.44626 
L 330.620016 285.5876 
L 331.178308 285.008468 
L 331.550504 285.102498 
L 331.922699 285.61396 
L 332.108796 285.616777 
L 332.294894 285.895835 
L 332.480992 285.868933 
L 332.853187 286.265818 
L 333.039284 286.440771 
L 333.225382 286.069127 
L 333.41148 286.054647 
L 333.783675 286.942808 
L 333.969772 286.793241 
L 334.528065 287.106423 
L 334.714163 286.761644 
L 334.90026 286.737306 
L 335.458553 287.332471 
L 335.644651 286.96646 
L 335.830748 287.460012 
L 336.202944 287.090968 
L 336.389041 286.415133 
L 336.761236 286.495658 
L 336.947334 285.915154 
L 337.133431 286.469081 
L 337.319529 286.573583 
L 337.505627 286.441493 
L 337.691724 286.572897 
L 337.877822 286.116575 
L 338.063919 286.192515 
L 338.250017 286.576436 
L 338.436115 286.652737 
L 338.622212 286.527399 
L 338.994407 286.116359 
L 339.180505 286.125892 
L 339.5527 286.521441 
L 339.738798 286.422896 
L 339.924895 286.56062 
L 340.110993 287.155677 
L 340.297091 286.934033 
L 340.483188 286.953641 
L 340.669286 286.791977 
L 340.855383 287.055688 
L 341.041481 286.929773 
L 341.227579 286.519021 
L 341.413676 287.01427 
L 341.785871 286.961405 
L 342.344164 287.280762 
L 342.530262 287.011345 
L 343.088555 287.713829 
L 343.274652 287.619618 
L 343.46075 287.827214 
L 343.646847 287.049044 
L 343.832945 287.05103 
L 344.019042 287.172504 
L 344.20514 286.993073 
L 344.391238 287.394544 
L 344.763433 286.582864 
L 344.94953 286.583911 
L 345.135628 286.825667 
L 345.507823 285.717993 
L 345.693921 285.576189 
L 345.880018 285.719185 
L 346.252214 284.909382 
L 346.438311 285.071769 
L 346.624409 284.965894 
L 346.810506 285.006265 
L 346.996604 284.429191 
L 347.182702 284.341155 
L 347.368799 284.596742 
L 347.554897 284.533549 
L 347.740994 284.852834 
L 347.927092 284.880169 
L 348.485385 285.789491 
L 349.043678 286.381406 
L 349.415873 286.8495 
L 349.60197 287.448348 
L 349.788068 287.642367 
L 350.532458 286.891135 
L 351.090751 287.013259 
L 351.276849 287.321097 
L 351.462946 287.162754 
L 351.649044 287.533676 
L 351.835141 287.533098 
L 352.021239 287.865996 
L 352.207337 287.536493 
L 352.579532 288.225833 
L 353.137825 287.689816 
L 353.323922 287.972593 
L 353.51002 287.659664 
L 353.696117 287.65905 
L 354.068313 286.701991 
L 354.25441 287.022972 
L 354.440508 286.928978 
L 354.812703 287.280112 
L 354.998801 287.463081 
L 355.184898 287.000295 
L 355.370996 286.963824 
L 355.557093 286.747453 
L 355.743191 287.171348 
L 355.929289 287.243388 
L 356.115386 287.165643 
L 356.301484 287.433724 
L 356.673679 287.298744 
L 357.045874 288.142527 
L 357.418069 288.37717 
L 357.604167 288.636981 
L 357.976362 287.865671 
L 358.16246 287.943416 
L 358.348557 288.323221 
L 358.534655 288.177192 
L 358.720752 287.885351 
L 359.092948 288.251254 
L 359.465143 288.321994 
L 359.65124 288.462353 
L 359.837338 288.455853 
L 360.023436 288.668433 
L 360.209533 287.518402 
L 360.395631 287.181098 
L 360.581728 287.261696 
L 361.140021 286.490205 
L 361.326119 286.434885 
L 361.512216 285.686252 
L 361.884412 285.904754 
L 362.442704 285.984774 
L 362.628802 286.216347 
L 362.814899 286.237435 
L 363.000997 286.644323 
L 363.187095 286.524438 
L 363.373192 286.981229 
L 363.931485 286.644287 
L 364.117583 287.085948 
L 364.489778 286.763342 
L 365.234168 287.573542 
L 365.420266 287.620737 
L 365.792461 287.043627 
L 365.978559 287.405088 
L 366.350754 287.252957 
L 366.536851 287.318966 
L 366.722949 287.762686 
L 367.095144 287.501719 
L 367.653437 287.45929 
L 367.839535 287.242088 
L 368.025632 287.224358 
L 368.21173 287.079304 
L 368.770023 287.40433 
L 369.142218 287.929767 
L 369.328315 287.948652 
L 369.514413 287.486805 
L 369.70051 286.65772 
L 370.072706 287.16976 
L 370.258803 286.862355 
L 370.444901 287.001631 
L 370.630998 287.530643 
L 370.817096 287.31355 
L 371.003194 287.518871 
L 371.189291 287.070782 
L 371.561486 287.359229 
L 371.747584 286.833503 
L 371.933682 286.651039 
L 372.119779 286.642879 
L 372.491974 286.380612 
L 372.678072 286.414772 
L 372.86417 286.779085 
L 373.236365 286.577844 
L 373.422462 286.697621 
L 373.60856 286.604674 
L 374.166853 287.543173 
L 374.35295 287.648903 
L 374.539048 287.316222 
L 374.725146 287.468064 
L 374.911243 287.260865 
L 375.283438 286.400364 
L 375.469536 286.397547 
L 375.841731 286.661222 
L 376.027829 286.820395 
L 376.586121 286.809346 
L 376.772219 287.129497 
L 376.958317 287.205472 
L 377.144414 287.447843 
L 377.330512 287.331207 
L 377.516609 287.822664 
L 377.888805 288.086376 
L 378.074902 287.807246 
L 378.447097 288.150074 
L 378.633195 288.225616 
L 378.819293 288.053732 
L 379.377585 288.521935 
L 379.563683 288.459753 
L 379.749781 288.539737 
L 380.121976 288.069982 
L 380.494171 287.77973 
L 380.866366 287.859244 
L 381.052464 288.114325 
L 381.238561 287.933919 
L 381.424659 287.977251 
L 381.796854 287.549673 
L 382.169049 287.650925 
L 382.355147 287.604993 
L 382.541244 288.069874 
L 382.727342 287.886651 
L 383.099537 288.052396 
L 383.285635 287.722315 
L 383.471732 287.85083 
L 383.65783 287.40025 
L 383.843928 287.39913 
L 384.030025 287.605318 
L 384.40222 287.552237 
L 384.588318 287.801937 
L 384.960513 288.579097 
L 385.146611 288.437907 
L 385.332708 288.658647 
L 385.518806 288.536992 
L 386.077099 289.025597 
L 386.263196 289.013608 
L 386.449294 288.548367 
L 386.821489 288.90972 
L 387.007587 289.106917 
L 387.379782 288.737006 
L 387.56588 288.291192 
L 387.751977 287.446723 
L 388.124172 288.004695 
L 388.496368 287.644931 
L 388.868563 288.216191 
L 389.05466 287.726431 
L 389.799051 288.32398 
L 389.985148 288.244971 
L 390.171246 288.600041 
L 390.357343 288.57888 
L 390.729539 289.143063 
L 391.101734 289.031338 
L 391.473929 289.530523 
L 391.846124 289.422301 
L 392.404417 287.722604 
L 392.776612 287.641609 
L 392.96271 287.603838 
L 393.334905 287.756258 
L 393.521003 287.550612 
L 393.7071 288.062038 
L 393.893198 288.12003 
L 394.079295 288.042177 
L 394.265393 288.096812 
L 395.009783 289.392041 
L 395.195881 289.163068 
L 395.381978 289.320796 
L 395.568076 289.188742 
L 395.754174 289.215644 
L 395.940271 288.543384 
L 396.684662 288.348751 
L 396.870759 288.379589 
L 397.056857 287.649264 
L 397.242954 287.679741 
L 397.61515 288.474667 
L 398.173442 288.363664 
L 398.35954 288.419635 
L 398.545638 288.031055 
L 398.731735 288.143394 
L 399.10393 287.652731 
L 399.476126 288.307622 
L 399.662223 288.402374 
L 399.848321 288.860177 
L 400.220516 288.958505 
L 400.406614 289.535723 
L 400.778809 289.767802 
L 400.964906 289.661638 
L 401.151004 289.357628 
L 401.337102 289.414935 
L 401.709297 289.042496 
L 402.267589 289.273348 
L 402.453687 289.103414 
L 402.639785 289.294328 
L 403.01198 288.982662 
L 403.198077 289.22366 
L 403.384175 289.08359 
L 403.570273 289.201669 
L 403.75637 289.102403 
L 404.500761 290.257056 
L 405.059053 289.755344 
L 405.245151 289.786832 
L 405.431249 289.554247 
L 405.617346 289.645642 
L 405.989541 289.637264 
L 406.175639 289.635531 
L 406.361737 289.410385 
L 406.547834 289.470075 
L 406.733932 289.212105 
L 407.106127 289.519329 
L 407.292225 289.032566 
L 407.66442 288.89069 
L 408.036615 288.601666 
L 408.40881 288.863969 
L 408.594908 288.899031 
L 408.781005 289.080556 
L 408.967103 288.99364 
L 409.1532 289.295736 
L 409.339298 289.011442 
L 409.525396 289.156748 
L 409.711493 288.982482 
L 410.083688 289.24121 
L 410.269786 289.632714 
L 410.641981 289.382941 
L 410.828079 289.580463 
L 411.200274 289.017942 
L 411.386372 288.922575 
L 411.572469 289.028738 
L 411.758567 288.766291 
L 411.944664 288.699704 
L 412.130762 288.403566 
L 412.31686 288.361101 
L 412.502957 288.096451 
L 412.689055 288.338496 
L 412.875152 288.144549 
L 413.06125 288.333693 
L 413.247348 288.105442 
L 413.433445 288.473692 
L 413.619543 288.408369 
L 413.80564 287.875493 
L 413.991738 288.237966 
L 414.922226 288.256093 
L 415.108323 288.422199 
L 415.294421 288.738378 
L 415.480519 288.787126 
L 415.666616 289.020325 
L 416.038811 289.118363 
L 416.411007 289.617981 
L 416.597104 289.484627 
L 416.969299 289.657161 
L 417.341495 289.603537 
L 417.527592 289.762024 
L 417.899787 289.545545 
L 418.085885 289.799868 
L 418.644178 289.603574 
L 418.830275 289.786651 
L 419.202471 289.463792 
L 419.388568 289.664563 
L 419.574666 289.208025 
L 419.946861 288.900873 
L 420.132959 288.444659 
L 420.319056 288.494419 
L 420.505154 288.148413 
L 420.691251 288.48308 
L 420.877349 288.411221 
L 421.063446 288.634345 
L 421.249544 288.182898 
L 421.435642 288.15986 
L 421.807837 288.351676 
L 422.552227 288.586283 
L 422.738325 288.529229 
L 422.924422 288.683707 
L 423.11052 288.607804 
L 423.296618 288.792182 
L 423.85491 288.498608 
L 424.227106 288.975801 
L 424.413203 289.034155 
L 424.785398 289.645786 
L 424.971496 289.420929 
L 425.157594 289.555656 
L 425.529789 289.161262 
L 425.715886 288.987212 
L 426.088082 289.126235 
L 426.460277 288.971143 
L 426.832472 289.531426 
L 427.01857 289.598699 
L 427.204667 289.106411 
L 427.390765 289.12118 
L 427.576862 289.524095 
L 427.949057 289.470328 
L 428.321253 288.863138 
L 428.50735 288.994145 
L 428.879545 288.553892 
L 428.879545 288.553892 
" style="fill:none;stroke:#1f77b4;stroke-linecap:square;stroke-width:1.5;"/>
   </g>
   <g id="patch_3">
    <path d="M 38.27 303.64 
L 38.27 14.76 
" style="fill:none;stroke:#000000;stroke-linecap:square;stroke-linejoin:miter;stroke-width:0.8;"/>
   </g>
   <g id="patch_4">
    <path d="M 447.48 303.64 
L 447.48 14.76 
" style="fill:none;stroke:#000000;stroke-linecap:square;stroke-linejoin:miter;stroke-width:0.8;"/>
   </g>
   <g id="patch_5">
    <path d="M 38.27 303.64 
L 447.48 303.64 
" style="fill:none;stroke:#000000;stroke-linecap:square;stroke-linejoin:miter;stroke-width:0.8;"/>
   </g>
   <g id="patch_6">
    <path d="M 38.27 14.76 
L 447.48 14.76 
" style="fill:none;stroke:#000000;stroke-linecap:square;stroke-linejoin:miter;stroke-width:0.8;"/>
   </g>
  </g>
 </g>
 <defs>
  <clipPath id="pd34ee36b68">
   <rect height="288.88" width="409.21" x="38.27" y="14.76"/>
  </clipPath>
 </defs>
</svg>
